<?xml version="1.0" encoding="utf-8"?>
<!-- Generator: Adobe Illustrator 18.1.1, SVG Export Plug-In . SVG Version: 6.00 Build 0)  -->
<!DOCTYPE svg PUBLIC "-//W3C//DTD SVG 1.1//EN" "http://www.w3.org/Graphics/SVG/1.1/DTD/svg11.dtd">
<svg version="1.1" id="Layer_1" xmlns="http://www.w3.org/2000/svg" xmlns:xlink="http://www.w3.org/1999/xlink" x="0px" y="0px"
	 viewBox="0 0 333.4 227.7" style="enable-background:new 0 0 333.4 227.7;" xml:space="preserve">
<style type="text/css">
	.st0{fill:#010101;}
</style>
<g>
	<path class="st0" d="M157.4,8.9C99.3,8.9,51.9,56.2,51.9,114.4s47.3,105.5,105.5,105.5s105.5-47.3,105.5-105.5S215.6,8.9,157.4,8.9
		z M157.4,199.2c-47,0-85.2-38.2-85.2-85.2c0-47,38.2-85.2,85.2-85.2c47,0,85.2,38.2,85.2,85.2C242.3,161,204.1,199.2,157.4,199.2z"
		/>
	<path class="st0" d="M272,90.4c2,7.4,1.7,15.6,1,24c27.7,17.6,32.5,28.4,32.1,30.1c0,0-5.4,6.4-35.5,4.1c-15.6-1-34.1-4.4-54.4-9.1
		v0.3c0,6.8-1.7,13.5-5.1,18.9c21.3,5.1,41.2,8.5,57.8,9.8c32.5,2.4,50.7-3.4,55.8-17.2C330.9,131.6,305.5,109.6,272,90.4z"/>
	<path class="st0" d="M144.2,117.4c-32.1-12.2-60.9-26-82.5-39.9C33.7,59.6,28.9,49.1,29.3,47.1c0,0,4.4-6.8,34.8-4.4
		c4.1-7.4,10.5-13.5,17.2-18.3c-4.4-0.3-10.5-0.7-14.9-1C34,21,15.8,26.8,10.7,40.7c-5.4,14.9,7.1,32.1,38.2,52.1
		c23,14.9,54.1,30.1,88.6,43.3C138.2,128.9,140.5,122.5,144.2,117.4z"/>
	<circle class="st0" cx="175.7" cy="140.1" r="26.4"/>
</g>
<g>
</g>
<g>
</g>
<g>
</g>
<g>
</g>
<g>
</g>
<g>
</g>
</svg>
