<?xml version="1.0" encoding="utf-8"?>
<!-- Generator: Adobe Illustrator 18.1.0, SVG Export Plug-In . SVG Version: 6.00 Build 0)  -->
<!DOCTYPE svg PUBLIC "-//W3C//DTD SVG 1.1//EN" "http://www.w3.org/Graphics/SVG/1.1/DTD/svg11.dtd">
<svg version="1.1" id="Layer_1" xmlns="http://www.w3.org/2000/svg" xmlns:xlink="http://www.w3.org/1999/xlink" x="0px" y="0px"
	 viewBox="-345 257.8 99.2 99.2" style="enable-background:new -345 257.8 99.2 99.2;" xml:space="preserve">
<path d="M-298.1,276.3c-17.2,0-31.2,14-31.2,31.2s14,31.2,31.2,31.2s31.2-14,31.2-31.2S-280.9,276.3-298.1,276.3z M-298.1,332.6
	c-13.9,0-25.2-11.3-25.2-25.2c0-13.9,11.3-25.2,25.2-25.2c13.9,0,25.2,11.3,25.2,25.2C-273,321.3-284.3,332.6-298.1,332.6z"/>
<path style="fill:none;" d="M-319.2,283.5c-0.2,0.2-0.5,0.5-0.7,0.7v5.3h8.7v-6L-319.2,283.5L-319.2,283.5z"/>
<rect id="_x3C_Slice_x3E__1_" x="-314.6" y="293.5" style="fill:none;" width="2" height="1.3"/>
<path d="M-264.2,300.4c0.6,2.2,0.5,4.6,0.3,7.1c8.2,5.2,9.6,8.4,9.5,8.9c0,0-1.6,1.9-10.5,1.2c-4.6-0.3-10.1-1.3-16.1-2.7l0,0.1
	c0,2-0.5,4-1.5,5.6c6.3,1.5,12.2,2.5,17.1,2.9c9.6,0.7,15-1,16.5-5.1C-246.8,312.6-254.3,306.1-264.2,300.4z"/>
<path d="M-302,308.4c-9.5-3.6-18-7.7-24.4-11.8c-8.3-5.3-9.7-8.4-9.6-9c0,0,1.3-2,10.3-1.3c1.2-2.2,3.1-4,5.1-5.4
	c-1.3-0.1-3.1-0.2-4.4-0.3c-9.6-0.7-15,1-16.5,5.1c-1.6,4.4,2.1,9.5,11.3,15.4c6.8,4.4,16,8.9,26.2,12.8
	C-303.8,311.8-303.1,309.9-302,308.4z"/>
<circle cx="-292.7" cy="315.1" r="7.8"/>
</svg>
