<svg xmlns="http://www.w3.org/2000/svg" viewBox="0 0 256 256" enable-background="new 0 0 256 256"><style type="text/css">.st0{fill:#4F9BD5;}</style><path class="st0" d="M44.9 110.8s-1.7-4.2-1.7-9.4 1.7-9.4 1.7-9.4c-.3 0-35.3 9.4-35.3 9.4s35.1 9.4 35.3 9.4zM211.1 92.1s1.7 4.2 1.7 9.4-1.7 9.4-1.7 9.4c.3 0 35.3-9.4 35.3-9.4s-35.1-9.4-35.3-9.4z"/><circle class="st0" cx="91.7" cy="100.9" r="10.6"/><path class="st0" d="M192.7 87.8c1.4 0 2.5 1.1 2.5 2.5v22.3c0 1.4-1.1 2.5-2.5 2.5h-129.4c-1.4 0-2.5-1.1-2.5-2.5v-22.3c0-1.4 1.1-2.5 2.5-2.5h129.4m0-12.7h-129.4c-8.4 0-15.2 6.8-15.2 15.2v22.3c0 8.4 6.8 15.2 15.2 15.2h129.4c8.4 0 15.2-6.8 15.2-15.2v-22.3c0-8.4-6.8-15.2-15.2-15.2zM127.1 166c-19.2 0-35.4 29-35.4 63.2 0 3.9.2 7.7.6 11.5 9.8 3.1 21.8 4.9 34.8 4.9s24.9-1.8 34.8-4.9c.4-3.7.6-7.6.6-11.5-.1-34.3-16.3-63.2-35.4-63.2zm-21.4 61.7c0 2.3-1.9 4.2-4.2 4.2-2.3 0-4.2-1.9-4.2-4.2v-14.6c0-2.3 1.9-4.2 4.2-4.2 2.3 0 4.2 1.9 4.2 4.2v14.6zm16.8 0c0 2.3-1.9 4.2-4.2 4.2-2.3 0-4.2-1.9-4.2-4.2v-14.6c0-2.3 1.9-4.2 4.2-4.2 2.3 0 4.2 1.9 4.2 4.2v14.6zm16.8 0c0 2.3-1.9 4.2-4.2 4.2-2.3 0-4.2-1.9-4.2-4.2v-14.6c0-2.3 1.9-4.2 4.2-4.2 2.3 0 4.2 1.9 4.2 4.2v14.6zm16.8 0c0 2.3-1.9 4.2-4.2 4.2-2.3 0-4.2-1.9-4.2-4.2v-14.6c0-2.3 1.9-4.2 4.2-4.2 2.3 0 4.2 1.9 4.2 4.2v14.6zM66.8 116.9v10.8h87.4c1.6 0 2.9 1.3 2.9 2.9 0 1.6-1.3 2.9-2.9 2.9h-87.4v85c0 7.2 6.4 13.8 16.8 18.6-.2-2.7-.3-5.4-.3-8.1 0-40.2 19.2-71.6 43.7-71.6 24.5 0 43.7 31.5 43.7 71.6 0 2.8-.1 5.5-.3 8.1 10.4-4.8 16.8-11.4 16.8-18.6v-101.6h-120.4zM127.1 62.2c-2.1 0-3.8-1.7-3.8-3.8 0-2.1 1.7-3.8 3.8-3.8h59.8c-.7-2.1-1.5-4.2-2.3-6.2h-35.6c-3.5 0-6.4-2.8-6.4-6.4 0-3.5 2.8-6.4 6.4-6.4h28.2c-11.5-15.5-29.7-25.3-50.1-25.3-32.1 0-58.6 24-62.5 56.6h125.1c-.2-1.6-.5-3.2-.8-4.8l-61.8.1zm4.3-26.8c3.7 0 6.6 3 6.6 6.6 0 3.7-3 6.6-6.6 6.6-3.7 0-6.6-3-6.6-6.6 0-3.6 3-6.6 6.6-6.6z"/></svg>